<svg width="17" height="17" viewBox="0 0 17 17" fill="none" xmlns="http://www.w3.org/2000/svg">
<path d="M12.7335 15.1667H3.93352C3.72273 15.1667 3.51401 15.125 3.31937 15.0441C3.12473 14.9632 2.94799 14.8446 2.79931 14.6952C2.65063 14.5458 2.53294 14.3685 2.453 14.1734C2.37307 13.9784 2.33246 13.7695 2.33352 13.5587V6.05466C2.33352 5.8 2.45352 5.56533 2.65352 5.41133L7.84018 1.994C7.97844 1.88962 8.14695 1.83316 8.32018 1.83316C8.49341 1.83316 8.66192 1.88962 8.80018 1.994L14.0135 5.41133C14.2135 5.56533 14.3335 5.8 14.3335 6.05466V13.5587C14.3346 13.7695 14.294 13.9784 14.214 14.1734C14.1341 14.3685 14.0164 14.5458 13.8677 14.6952C13.719 14.8446 13.5423 14.9632 13.3477 15.0441C13.153 15.125 12.9443 15.1667 12.7335 15.1667Z" stroke="white" stroke-miterlimit="10" stroke-linejoin="round"/>
<path d="M6.86683 8.5H9.80016C10.0935 8.5 10.3335 8.74 10.3335 9.03333V15.1667H6.3335V9.03333C6.3335 8.74 6.5735 8.5 6.86683 8.5Z" stroke="white" stroke-miterlimit="10" stroke-linejoin="round"/>
</svg>
