<svg width="17" height="17" viewBox="0 0 17 17" fill="none" xmlns="http://www.w3.org/2000/svg">
<path d="M13.3335 6.5H9.3335V2.5H3.3335V14.5H13.3335V6.5ZM12.9195 5.5L10.3335 2.914V5.5H12.9195ZM2.8335 1.5H10.3335L14.3335 5.5V15C14.3335 15.1326 14.2808 15.2598 14.187 15.3536C14.0933 15.4473 13.9661 15.5 13.8335 15.5H2.8335C2.70089 15.5 2.57371 15.4473 2.47994 15.3536C2.38617 15.2598 2.3335 15.1326 2.3335 15V2C2.3335 1.86739 2.38617 1.74021 2.47994 1.64645C2.57371 1.55268 2.70089 1.5 2.8335 1.5ZM5.3335 8.5H11.3335V9.5H5.3335V8.5ZM5.3335 5.5H7.8335V6.5H5.3335V5.5ZM5.3335 11.5H11.3335V12.5H5.3335V11.5Z" fill="white"/>
</svg>
