<svg width="32" height="32" viewBox="0 0 32 32" fill="none" xmlns="http://www.w3.org/2000/svg">
<path d="M18.6451 8.01586C18.6451 5.06252 16.2731 2.66919 13.3477 2.66919C10.4224 2.66919 8.04907 5.06252 8.04907 8.01586" stroke="white" stroke-width="2" stroke-linecap="round" stroke-linejoin="round"/>
<path d="M12.5013 29.3238L12.3626 27.8624C11.712 25.1718 10.824 24.8171 9.37731 22.8891C8.72398 22.0198 7.35998 20.7864 6.24398 19.1198C5.50131 18.0104 6.49331 15.4864 8.75464 16.2558C9.13064 16.3838 9.44798 16.6411 9.72797 16.9224L11.9226 19.1278C11.9053 16.0104 11.9453 9.66509 11.896 7.71842C11.848 5.77175 15.2266 5.14509 15.4266 7.80642V13.7958M15.4266 13.7958V14.9491M15.4266 13.7958C16.5306 12.3318 18.6213 12.2798 18.9266 14.7304M18.9266 14.7304C18.976 15.1304 18.98 15.5971 18.9266 16.1344M18.9266 14.7304C19.484 13.0184 21.9373 13.6984 22.4253 15.6904C22.54 16.1638 22.4253 16.7104 22.472 17.3411M22.4253 15.6918C22.7413 14.7318 26.2453 14.6598 25.9133 18.3704L26 21.7358C25.8666 23.7451 25.5706 24.5864 24.8493 25.5584C24.476 26.0611 23.984 26.5051 23.796 27.1038C23.64 27.6051 23.54 28.3398 23.6493 29.3331" stroke="white" stroke-width="2" stroke-linecap="round" stroke-linejoin="round"/>
</svg>
