<svg width="10" height="10" viewBox="0 0 10 10" fill="none" xmlns="http://www.w3.org/2000/svg">
<path d="M5.25663 0.786391C5.78452 0.27609 6.49153 -0.00627692 7.2254 0.000105901C7.95927 0.00648868 8.66127 0.301111 9.18021 0.820516C9.69916 1.33992 9.99352 2.04255 9.99989 2.77707C10.0063 3.5116 9.72416 4.21924 9.21431 4.74759L9.20733 4.7547L7.87168 6.09154C7.87166 6.09157 7.87171 6.09152 7.87168 6.09154C7.58795 6.37561 7.24643 6.59536 6.87042 6.73574C6.49438 6.87614 6.09257 6.93396 5.69224 6.90526C5.29192 6.87656 4.90244 6.76203 4.55023 6.56943C4.19802 6.37683 3.89131 6.11066 3.65091 5.78899C3.46145 5.53548 3.51319 5.17625 3.76647 4.98662C4.01976 4.79699 4.37867 4.84878 4.56813 5.10229C4.71015 5.29232 4.89134 5.44956 5.09941 5.56334C5.30748 5.67712 5.53757 5.74479 5.77407 5.76174C6.01057 5.77869 6.24794 5.74454 6.47009 5.6616C6.69224 5.57865 6.89397 5.44886 7.06159 5.28102L8.39362 3.94781C8.69279 3.63604 8.85826 3.21942 8.85451 2.78704C8.85074 2.35311 8.67684 1.93802 8.37027 1.63118C8.0637 1.32433 7.64899 1.15028 7.21544 1.14651C6.78318 1.14275 6.36669 1.30857 6.05514 1.60836L5.29248 2.36726C5.06817 2.59046 4.70555 2.5894 4.48254 2.36489C4.25953 2.14038 4.26059 1.77744 4.4849 1.55423L5.25072 0.792193L5.25663 0.786391Z" fill="white"/>
<path d="M3.12958 3.26426C3.50562 3.12386 3.90743 3.06604 4.30775 3.09474C4.70808 3.12344 5.09756 3.23797 5.44977 3.43057C5.80198 3.62317 6.10869 3.88934 6.34909 4.21101C6.53855 4.46452 6.48681 4.82375 6.23353 5.01338C5.98024 5.20301 5.62133 5.15122 5.43187 4.89771C5.28985 4.70768 5.10866 4.55044 4.90059 4.43666C4.69252 4.32288 4.46243 4.25521 4.22593 4.23826C3.98943 4.22131 3.75206 4.25546 3.52991 4.3384C3.30776 4.42135 3.10603 4.55114 2.93841 4.71898L1.60639 6.05218C1.30721 6.36395 1.14174 6.78057 1.14549 7.21296C1.14926 7.64689 1.32316 8.06198 1.62973 8.36882C1.9363 8.67567 2.35101 8.84972 2.78455 8.85349C3.21656 8.85724 3.63281 8.69163 3.9443 8.39218L4.70189 7.63392C4.92555 7.41006 5.28817 7.41006 5.51183 7.63392C5.73549 7.85778 5.73549 8.22073 5.51183 8.44458L4.75047 9.20663L4.74337 9.21361C4.21548 9.72391 3.50847 10.0063 2.7746 9.99989C2.04073 9.99351 1.33873 9.69889 0.819785 9.17948C0.300843 8.66008 0.00648291 7.95745 0.000105807 7.22293C-0.00627133 6.4884 0.275844 5.78076 0.785691 5.25241L0.792667 5.2453L2.12832 3.90846C2.12829 3.90848 2.12834 3.90843 2.12832 3.90846C2.41205 3.62439 2.75357 3.40464 3.12958 3.26426Z" fill="white"/>
</svg>
