<svg width="64" height="64" viewBox="0 0 64 64" fill="none" xmlns="http://www.w3.org/2000/svg">
<path d="M20.68 35.68V53.8933C20.68 54.9825 20.2473 56.027 19.4772 56.7972C18.707 57.5673 17.6625 58 16.5733 58H11.7466C11.2051 58.0035 10.6682 57.8999 10.1669 57.6951C9.66557 57.4903 9.2097 57.1883 8.82553 56.8067C8.44137 56.425 8.13649 55.9711 7.92844 55.4711C7.7204 54.9711 7.6133 54.4349 7.61331 53.8933V35.68C7.60976 35.1362 7.71426 34.5971 7.92072 34.0941C8.12719 33.591 8.43151 33.1339 8.81604 32.7494C9.20056 32.3649 9.65762 32.0605 10.1607 31.8541C10.6638 31.6476 11.2029 31.5431 11.7466 31.5467H16.5733C17.1151 31.5459 17.6516 31.6526 18.1519 31.8604C18.6522 32.0682 19.1064 32.373 19.4882 32.7573C19.87 33.1416 20.172 33.5978 20.3765 34.0994C20.5811 34.6011 20.6842 35.1383 20.68 35.68ZM38.5466 10.1333V53.8933C38.5467 54.4349 38.4396 54.9711 38.2315 55.4711C38.0235 55.9711 37.7186 56.425 37.3344 56.8067C36.9502 57.1883 36.4944 57.4903 35.9931 57.6951C35.4917 57.8999 34.9548 58.0035 34.4133 58H29.5866C28.495 58 27.4477 57.5682 26.6733 56.7988C25.8989 56.0294 25.4604 54.9849 25.4533 53.8933V10.1333C25.4603 9.03926 25.898 7.99199 26.6717 7.21835C27.4453 6.44471 28.4926 6.00699 29.5866 6H34.4133C35.5095 6 36.5609 6.43547 37.336 7.21063C38.1112 7.98578 38.5466 9.03711 38.5466 10.1333ZM56.3866 23.9467V53.8933C56.3866 54.9825 55.954 56.027 55.1838 56.7972C54.4137 57.5673 53.3691 58 52.28 58H47.4533C46.9116 58.0042 46.3744 57.9011 45.8727 57.6965C45.3711 57.492 44.9149 57.1901 44.5306 56.8082C44.1463 56.4264 43.8415 55.9722 43.6337 55.4719C43.4259 54.9716 43.3193 54.4351 43.32 53.8933V23.9467C43.32 23.4039 43.4269 22.8664 43.6346 22.3649C43.8423 21.8634 44.1468 21.4078 44.5306 21.024C44.9144 20.6401 45.3701 20.3357 45.8716 20.128C46.373 19.9202 46.9105 19.8133 47.4533 19.8133H52.3866C53.4596 19.848 54.477 20.2987 55.2235 21.0701C55.9701 21.8415 56.3872 22.8732 56.3866 23.9467Z" fill="#F7FAFF"/>
</svg>
