<svg width="32" height="32" viewBox="0 0 32 32" fill="none" xmlns="http://www.w3.org/2000/svg">
<path d="M5.5 28C4.57174 28 3.6815 27.6313 3.02513 26.9749C2.36875 26.3185 2 25.4283 2 24.5V19.5C2 19.1022 2.15804 18.7206 2.43934 18.4393C2.72064 18.158 3.10218 18 3.5 18C3.89782 18 4.27936 18.158 4.56066 18.4393C4.84196 18.7206 5 19.1022 5 19.5V24.5C5 24.776 5.224 25 5.5 25H26.5C26.6326 25 26.7598 24.9473 26.8536 24.8536C26.9473 24.7598 27 24.6326 27 24.5V19.5C27 19.1022 27.158 18.7206 27.4393 18.4393C27.7206 18.158 28.1022 18 28.5 18C28.8978 18 29.2794 18.158 29.5607 18.4393C29.842 18.7206 30 19.1022 30 19.5V24.5C30 25.4283 29.6313 26.3185 28.9749 26.9749C28.3185 27.6313 27.4283 28 26.5 28H5.5Z" fill="#F7FAFF"/>
<path d="M14.5 15.378V4C14.5 3.60218 14.658 3.22064 14.9393 2.93934C15.2206 2.65804 15.6022 2.5 16 2.5C16.3978 2.5 16.7793 2.65804 17.0606 2.93934C17.3419 3.22064 17.5 3.60218 17.5 4V15.378L21.44 11.44C21.5792 11.3008 21.7444 11.1904 21.9263 11.115C22.1082 11.0397 22.3031 11.0009 22.5 11.0009C22.6968 11.0009 22.8918 11.0397 23.0736 11.115C23.2555 11.1904 23.4208 11.3008 23.56 11.44C23.6992 11.5792 23.8096 11.7445 23.8849 11.9263C23.9603 12.1082 23.999 12.3031 23.999 12.5C23.999 12.6969 23.9603 12.8918 23.8849 13.0737C23.8096 13.2555 23.6992 13.4208 23.56 13.56L17.06 20.06C16.7787 20.3409 16.3975 20.4987 16 20.4987C15.6025 20.4987 15.2212 20.3409 14.94 20.06L8.43998 13.56C8.30078 13.4208 8.19036 13.2555 8.11503 13.0737C8.03969 12.8918 8.00092 12.6969 8.00092 12.5C8.00092 12.3031 8.03969 12.1082 8.11503 11.9263C8.19036 11.7445 8.30078 11.5792 8.43998 11.44C8.57918 11.3008 8.74444 11.1904 8.92631 11.115C9.10819 11.0397 9.30312 11.0009 9.49998 11.0009C9.69684 11.0009 9.89177 11.0397 10.0736 11.115C10.2555 11.1904 10.4208 11.3008 10.56 11.44L14.5 15.378Z" fill="#F7FAFF"/>
</svg>
