<svg width="64" height="64" viewBox="0 0 64 64" fill="none" xmlns="http://www.w3.org/2000/svg">
<path d="M50.6667 10.6666H48V5.33331H42.6667V10.6666H21.3333V5.33331H16V10.6666H13.3333C10.3733 10.6666 8.02667 13.0666 8.02667 16L8 53.3333C8 54.7478 8.5619 56.1044 9.5621 57.1045C10.5623 58.1047 11.9188 58.6666 13.3333 58.6666H50.6667C53.6 58.6666 56 56.2666 56 53.3333V16C56 13.0666 53.6 10.6666 50.6667 10.6666ZM50.6667 53.3333H13.3333V26.6666H50.6667V53.3333ZM50.6667 21.3333H13.3333V16H50.6667V21.3333ZM32 34.6666H45.3333V48H32V34.6666Z" fill="#F7FAFF"/>
</svg>
