<svg width="32" height="32" viewBox="0 0 32 32" fill="none" xmlns="http://www.w3.org/2000/svg">
<path d="M2.66669 16L1.62669 15.1667L0.960022 16L1.62669 16.8333L2.66669 16ZM14.6667 17.3333C15.0203 17.3333 15.3594 17.1929 15.6095 16.9428C15.8595 16.6928 16 16.3536 16 16C16 15.6464 15.8595 15.3072 15.6095 15.0572C15.3594 14.8071 15.0203 14.6667 14.6667 14.6667V17.3333ZM6.96002 8.5L1.62669 15.1667L3.70669 16.8333L9.04002 10.1667L6.96002 8.5ZM1.62669 16.8333L6.96002 23.5L9.04002 21.8333L3.70669 15.1667L1.62669 16.8333ZM2.66669 17.3333H14.6667V14.6667H2.66669V17.3333Z" fill="#F7FAFF"/>
<path d="M13.3334 10.8427V9.85199C13.3334 7.69332 13.3334 6.61466 13.9654 5.86932C14.5974 5.12266 15.6614 4.94532 17.7894 4.58932L20.0187 4.21866C24.3427 3.49866 26.504 3.13866 27.9187 4.33599C29.3334 5.53466 29.3334 7.72666 29.3334 12.1093V19.8893C29.3334 24.2733 29.3334 26.4653 27.92 27.6627C26.504 28.8627 24.3427 28.5027 20.0187 27.7813L17.7894 27.4093C15.6614 27.0547 14.5974 26.8773 13.9654 26.132C13.3334 25.3853 13.3334 24.3053 13.3334 22.1467V21.42" stroke="#F7FAFF" stroke-width="2.66667"/>
</svg>
