<svg width="33" height="33" viewBox="0 0 33 33" fill="none" xmlns="http://www.w3.org/2000/svg">
<path d="M26.125 2.75H6.875C5.78098 2.75 4.73177 3.1846 3.95818 3.95818C3.1846 4.73177 2.75 5.78098 2.75 6.875V8.48375C2.7498 9.05155 2.86683 9.61327 3.09375 10.1338V10.2163C3.28801 10.6576 3.56316 11.0587 3.905 11.3988L12.375 19.8138V28.875C12.3745 29.1087 12.4336 29.3386 12.5467 29.5431C12.6598 29.7476 12.8231 29.9199 13.0213 30.0438C13.2401 30.1794 13.4926 30.2508 13.75 30.25C13.9652 30.2487 14.1772 30.1969 14.3688 30.0988L19.8688 27.3488C20.0955 27.2345 20.2862 27.0597 20.4197 26.8437C20.5532 26.6277 20.6242 26.3789 20.625 26.125V19.8138L29.04 11.3988C29.3818 11.0587 29.657 10.6576 29.8513 10.2163V10.1338C30.0971 9.61734 30.2329 9.05545 30.25 8.48375V6.875C30.25 5.78098 29.8154 4.73177 29.0418 3.95818C28.2682 3.1846 27.219 2.75 26.125 2.75ZM18.2738 18.2738C18.1463 18.4022 18.0455 18.5546 17.9771 18.7221C17.9086 18.8897 17.874 19.069 17.875 19.25V25.2725L15.125 26.6475V19.25C15.126 19.069 15.0914 18.8897 15.0229 18.7221C14.9545 18.5546 14.8537 18.4022 14.7263 18.2738L7.43875 11H25.5613L18.2738 18.2738ZM27.5 8.25H5.5V6.875C5.5 6.51033 5.64487 6.16059 5.90273 5.90273C6.16059 5.64487 6.51033 5.5 6.875 5.5H26.125C26.4897 5.5 26.8394 5.64487 27.0973 5.90273C27.3551 6.16059 27.5 6.51033 27.5 6.875V8.25Z" fill="#F7FAFF"/>
</svg>
