<svg width="64" height="64" viewBox="0 0 64 64" fill="none" xmlns="http://www.w3.org/2000/svg">
<path d="M34.6666 50.6667C34.6666 51.5734 34.7733 52.4534 34.9066 53.3334H10.6666C9.25216 53.3334 7.8956 52.7715 6.89541 51.7713C5.89522 50.7711 5.33331 49.4145 5.33331 48V16C5.33331 13.04 7.70665 10.6667 10.6666 10.6667H26.6666L32 16H53.3333C54.7478 16 56.1044 16.5619 57.1045 17.5621C58.1047 18.5623 58.6666 19.9189 58.6666 21.3334V36.8267C57.04 35.8934 55.2533 35.2534 53.3333 34.9067V21.3334H10.6666V48H34.9066C34.7733 48.88 34.6666 49.76 34.6666 50.6667ZM53.3333 48V40H48V48H40V53.3334H48V61.3334H53.3333V53.3334H61.3333V48H53.3333Z" fill="#F7FAFF"/>
</svg>
