<svg width="64" height="64" viewBox="0 0 64 64" fill="none" xmlns="http://www.w3.org/2000/svg">
<path d="M8.00002 34.6667H10.6667V53.3334C10.6667 56.2747 13.0587 58.6667 16 58.6667H48C50.9414 58.6667 53.3334 56.2747 53.3334 53.3334V34.6667H56C56.5274 34.6666 57.0428 34.5101 57.4812 34.2171C57.9197 33.9241 58.2614 33.5076 58.4632 33.0204C58.6649 32.5332 58.7178 31.9972 58.6149 31.4799C58.5121 30.9627 58.2582 30.4876 57.8854 30.1147L33.8854 6.11469C33.6379 5.86684 33.344 5.6702 33.0205 5.53604C32.697 5.40188 32.3502 5.33282 32 5.33282C31.6498 5.33282 31.303 5.40188 30.9795 5.53604C30.656 5.6702 30.3621 5.86684 30.1147 6.11469L6.11469 30.1147C5.74186 30.4876 5.48798 30.9627 5.38513 31.4799C5.28229 31.9972 5.33509 32.5332 5.53688 33.0204C5.73867 33.5076 6.08037 33.9241 6.5188 34.2171C6.95723 34.5101 7.47269 34.6666 8.00002 34.6667ZM26.6667 53.3334V40H37.3334V53.3334H26.6667ZM32 11.7707L48 27.7707V40L48.0027 53.3334H42.6667V40C42.6667 37.0587 40.2747 34.6667 37.3334 34.6667H26.6667C23.7254 34.6667 21.3334 37.0587 21.3334 40V53.3334H16V27.7707L32 11.7707Z" fill="#F7FAFF"/>
</svg>
