<svg width="64" height="64" viewBox="0 0 64 64" fill="none" xmlns="http://www.w3.org/2000/svg">
<path d="M13.3333 56C11.8667 56 10.6116 55.4782 9.568 54.4347C8.52444 53.3911 8.00178 52.1351 8 50.6667V13.3333C8 11.8667 8.52267 10.6116 9.568 9.568C10.6133 8.52444 11.8684 8.00178 13.3333 8H50.6667C52.1333 8 53.3893 8.52267 54.4347 9.568C55.48 10.6133 56.0018 11.8684 56 13.3333V50.6667C56 52.1333 55.4782 53.3893 54.4347 54.4347C53.3911 55.48 52.1351 56.0018 50.6667 56H13.3333ZM16 45.3333H48L38 32L30 42.6667L24 34.6667L16 45.3333Z" fill="#F7FAFF"/>
</svg>
