<svg width="31" height="31" viewBox="0 0 31 31" fill="none" xmlns="http://www.w3.org/2000/svg">
<g filter="url(#filter0_b_198_326)">
<path fill-rule="evenodd" clip-rule="evenodd" d="M6 0C2.68629 0 0 2.68629 0 6V25C0 28.3137 2.68629 31 6 31H25C28.3137 31 31 28.3137 31 25V6C31 2.68629 28.3137 0 25 0H6ZM25.9122 26.3603H22.3678C22.2394 26.3603 22.1162 26.3093 22.0253 26.2184C21.9345 26.1276 21.8835 26.0044 21.8835 25.8759V19.2928C21.8835 17.6074 21.8534 15.4379 19.5363 15.4379C17.1857 15.4379 16.8261 17.274 16.8261 19.17V25.8753C16.8261 26.0038 16.7751 26.127 16.6842 26.2178C16.5934 26.3087 16.4702 26.3597 16.3417 26.3597H12.7976C12.6691 26.3597 12.5459 26.3087 12.455 26.2178C12.3642 26.127 12.3132 26.0038 12.3132 25.8753V12.3104C12.3132 12.1819 12.3642 12.0587 12.455 11.9679C12.5459 11.877 12.6691 11.826 12.7976 11.826H16.1612C16.2896 11.826 16.4128 11.877 16.5037 11.9679C16.5945 12.0587 16.6455 12.1819 16.6455 12.3104V13.7736C16.6456 13.782 16.6485 13.7902 16.6536 13.7969C16.6588 13.8036 16.666 13.8084 16.6742 13.8107C16.6823 13.8129 16.691 13.8123 16.6988 13.8092C16.7067 13.806 16.7133 13.8003 16.7176 13.7931C17.6024 12.2963 19.2422 11.4 20.9809 11.4647C25.555 11.4647 26.3984 14.4732 26.3984 18.3874L26.3966 25.876C26.3966 26.0045 26.3455 26.1277 26.2547 26.2185C26.1639 26.3093 26.0407 26.3603 25.9122 26.3603ZM7.22106 9.83935C5.78429 9.83935 4.60156 8.65723 4.60156 7.22058C4.60156 5.78392 5.78368 4.60156 7.22058 4.60156C8.65711 4.60156 9.83923 5.78356 9.83947 7.21997C9.83947 8.65639 8.65748 9.83923 7.22106 9.83935ZM8.99315 26.3603H5.44425C5.31579 26.3603 5.19259 26.3093 5.10175 26.2184C5.01091 26.1276 4.95988 26.0044 4.95988 25.8759V12.3104C4.95988 12.1819 5.01091 12.0587 5.10175 11.9679C5.19259 11.877 5.31579 11.826 5.44425 11.826H8.99315C9.12161 11.826 9.24482 11.877 9.33565 11.9679C9.42649 12.0587 9.47752 12.1819 9.47752 12.3104V25.8759C9.47752 26.0044 9.42649 26.1276 9.33565 26.2184C9.24482 26.3093 9.12161 26.3603 8.99315 26.3603Z" fill="white"/>
</g>
<defs>
<filter id="filter0_b_198_326" x="-40" y="-40" width="111" height="111" filterUnits="userSpaceOnUse" color-interpolation-filters="sRGB">
<feFlood flood-opacity="0" result="BackgroundImageFix"/>
<feGaussianBlur in="BackgroundImageFix" stdDeviation="20"/>
<feComposite in2="SourceAlpha" operator="in" result="effect1_backgroundBlur_198_326"/>
<feBlend mode="normal" in="SourceGraphic" in2="effect1_backgroundBlur_198_326" result="shape"/>
</filter>
</defs>
</svg>
