<svg width="28" height="28" viewBox="0 0 28 28" fill="none" xmlns="http://www.w3.org/2000/svg">
<path d="M12.8333 10.2084V14.5017C12.8333 14.91 13.055 15.295 13.405 15.505L17.045 17.6634C17.465 17.9084 18.0017 17.7684 18.2467 17.36C18.4917 16.94 18.3633 16.4034 17.9433 16.1584L14.595 14.1634V10.1967C14.5833 9.73002 14.1867 9.33336 13.7083 9.33336C13.23 9.33336 12.8333 9.73002 12.8333 10.2084ZM24.5 11.0834V4.91169C24.5 4.38669 23.87 4.13002 23.5083 4.50336L21.4317 6.58002C20.3388 5.48711 19.0184 4.64864 17.5644 4.12434C16.1105 3.60003 14.5588 3.4028 13.02 3.54669C8.13165 3.99002 4.10665 7.92169 3.56998 12.81C3.2863 15.551 4.09146 18.2936 5.81178 20.4462C7.5321 22.5988 10.0297 23.9889 12.7657 24.3165C15.5017 24.6442 18.2569 23.8831 20.4369 22.1976C22.6168 20.512 24.0468 18.0371 24.4183 15.3067C24.5 14.6067 23.9517 14 23.2517 14C22.6683 14 22.1783 14.4317 22.1083 15.0034C21.6067 19.075 18.095 22.225 13.8833 22.1667C9.55498 22.1084 5.90332 18.4567 5.83332 14.1167C5.76332 9.56669 9.46165 5.83336 14 5.83336C16.2517 5.83336 18.2933 6.75502 19.775 8.22502L17.3366 10.6634C16.9633 11.0367 17.22 11.6667 17.745 11.6667H23.9167C24.2433 11.6667 24.5 11.41 24.5 11.0834Z" fill="#324269"/>
</svg>
