<svg width="72" height="72" viewBox="0 0 72 72" fill="none" xmlns="http://www.w3.org/2000/svg">
<path fill-rule="evenodd" clip-rule="evenodd" d="M31.1452 2.0081C32.3606 0.794291 33.9867 0.0800638 35.7028 0.00633387C37.4189 -0.0673961 39.1003 0.504726 40.4153 1.60982L40.8548 2.01154L47.3782 8.53165H56.6002C58.332 8.53197 59.9998 9.18665 61.2693 10.3645C62.5389 11.5424 63.3165 13.1566 63.4464 14.8835L63.467 15.3985V24.6208L69.9904 31.1443C71.2051 32.3599 71.9199 33.9868 71.9937 35.7037C72.0674 37.4206 71.4947 39.1028 70.3886 40.4181L69.9869 40.8541L63.4635 47.3777V56.5999C63.4641 58.3323 62.8098 60.0009 61.6318 61.2713C60.4539 62.5416 58.8393 63.3197 57.1118 63.4496L56.6002 63.4668H47.3816L40.8582 69.9903C39.6427 71.2051 38.0158 71.9199 36.2989 71.9937C34.582 72.0674 32.8999 71.4947 31.5847 70.3886L31.1486 69.9903L24.6252 63.4668H15.3998C13.6674 63.4673 11.9988 62.813 10.7285 61.635C9.45822 60.4571 8.68013 58.8425 8.5502 57.1149L8.53303 56.5999V47.3777L2.00963 40.8541C0.794881 39.6385 0.0800646 38.0117 0.00632906 36.2947C-0.0674065 34.5778 0.505299 32.8956 1.61136 31.5804L2.00963 31.1443L8.53303 24.6208V15.3985C8.53335 13.6667 9.18802 11.9989 10.3659 10.7293C11.5438 9.45977 13.1578 8.68214 14.8848 8.55225L15.3998 8.53165H24.6218L31.1452 2.0081ZM46.5714 25.6405L32.0001 40.2121L25.9299 34.1417C25.2857 33.4979 24.4121 33.1364 23.5013 33.1367C22.5905 33.1371 21.7172 33.4992 21.0734 34.1434C20.4296 34.7877 20.0681 35.6613 20.0685 36.5721C20.0688 37.4829 20.4309 38.3562 21.0751 39L29.329 47.254C29.6797 47.6049 30.0961 47.8833 30.5544 48.0732C31.0128 48.2631 31.504 48.3609 32.0001 48.3609C32.4962 48.3609 32.9875 48.2631 33.4458 48.0732C33.9041 47.8833 34.3206 47.6049 34.6713 47.254L51.4261 30.4954C52.0516 29.8478 52.3976 28.9806 52.3898 28.0803C52.382 27.1801 52.0209 26.3189 51.3843 25.6823C50.7477 25.0457 49.8866 24.6847 48.9864 24.6768C48.0862 24.669 47.2189 25.0151 46.5714 25.6405Z" fill="#F7FAFF"/>
</svg>
