<svg width="455" height="455" viewBox="0 0 455 455" fill="none" xmlns="http://www.w3.org/2000/svg">
<rect width="455" height="455" rx="10" fill="#949494"/>
<path d="M162.399 162.4C163.336 161.465 164.604 160.94 165.927 160.94C167.25 160.94 168.519 161.465 169.455 162.4L292.6 285.545C293.482 286.491 293.962 287.743 293.939 289.036C293.917 290.329 293.393 291.563 292.478 292.478C291.563 293.393 290.329 293.917 289.036 293.939C287.743 293.962 286.491 293.482 285.544 292.6L279.247 286.31C277.047 287.033 274.747 287.404 272.431 287.408H182.569C176.831 287.408 171.328 285.129 167.271 281.072C163.214 277.015 160.935 271.512 160.935 265.775V202.538C160.935 193.199 166.859 185.238 175.147 182.209L162.399 169.455C161.465 168.519 160.939 167.251 160.939 165.928C160.939 164.605 161.465 163.336 162.399 162.4ZM239.628 246.691C235.784 249.636 231.001 251.085 226.169 250.767C221.337 250.448 216.785 248.385 213.361 244.961C209.936 241.537 207.873 236.985 207.555 232.153C207.237 227.32 208.685 222.537 211.631 218.693L204.535 211.604C199.715 217.343 197.221 224.681 197.546 232.169C197.872 239.656 200.992 246.75 206.292 252.05C211.591 257.35 218.685 260.47 226.173 260.795C233.66 261.12 240.998 258.627 246.737 253.806L239.628 246.691ZM257.035 235.854C257.839 231.136 257.5 226.293 256.048 221.733C254.596 217.172 252.071 213.026 248.687 209.641C245.303 206.257 241.156 203.732 236.596 202.28C232.035 200.828 227.193 200.489 222.474 201.293L198.577 177.397L202.239 171.426C203.578 169.244 205.454 167.442 207.688 166.191C209.922 164.941 212.439 164.284 214.999 164.283H240.314C242.923 164.283 245.488 164.965 247.753 166.261C250.018 167.557 251.905 169.422 253.227 171.672L258.646 180.905H272.431C275.272 180.905 278.085 181.464 280.71 182.551C283.335 183.639 285.719 185.232 287.728 187.241C289.737 189.25 291.331 191.635 292.418 194.259C293.505 196.884 294.065 199.697 294.065 202.538V265.775C294.06 267.94 293.758 270.011 293.159 271.985L257.035 235.854Z" fill="#6C6C6C"/>
</svg>
