<svg width="66" height="66" viewBox="0 0 66 66" fill="none" xmlns="http://www.w3.org/2000/svg">
<path d="M33 0.5C26.5721 0.5 20.2886 2.40609 14.944 5.97724C9.59938 9.54838 5.43378 14.6242 2.97393 20.5628C0.514082 26.5014 -0.129527 33.0361 1.12449 39.3404C2.37851 45.6448 5.47384 51.4358 10.019 55.981C14.5643 60.5262 20.3552 63.6215 26.6596 64.8755C32.964 66.1295 39.4986 65.4859 45.4372 63.0261C51.3758 60.5662 56.4516 56.4006 60.0228 51.056C63.5939 45.7114 65.5 39.4279 65.5 33C65.4909 24.3833 62.0639 16.122 55.9709 10.0291C49.878 3.93612 41.6168 0.509099 33 0.5ZM44.7688 41.2312C45.001 41.4635 45.1853 41.7393 45.311 42.0428C45.4367 42.3462 45.5014 42.6715 45.5014 43C45.5014 43.3285 45.4367 43.6538 45.311 43.9572C45.1853 44.2607 45.001 44.5365 44.7688 44.7688C44.5365 45.001 44.2607 45.1853 43.9573 45.311C43.6538 45.4367 43.3285 45.5014 43 45.5014C42.6715 45.5014 42.3463 45.4367 42.0428 45.311C41.7393 45.1853 41.4635 45.001 41.2313 44.7688L33 36.5344L24.7688 44.7688C24.5365 45.001 24.2607 45.1853 23.9573 45.311C23.6538 45.4367 23.3285 45.5014 23 45.5014C22.6715 45.5014 22.3463 45.4367 22.0428 45.311C21.7393 45.1853 21.4635 45.001 21.2313 44.7688C20.999 44.5365 20.8147 44.2607 20.689 43.9572C20.5633 43.6538 20.4986 43.3285 20.4986 43C20.4986 42.6715 20.5633 42.3462 20.689 42.0428C20.8147 41.7393 20.999 41.4635 21.2313 41.2312L29.4656 33L21.2313 24.7688C20.7622 24.2997 20.4986 23.6634 20.4986 23C20.4986 22.3366 20.7622 21.7003 21.2313 21.2312C21.7004 20.7621 22.3366 20.4986 23 20.4986C23.6634 20.4986 24.2997 20.7621 24.7688 21.2312L33 29.4656L41.2313 21.2312C41.4635 20.999 41.7393 20.8147 42.0428 20.689C42.3463 20.5633 42.6715 20.4986 43 20.4986C43.3285 20.4986 43.6538 20.5633 43.9573 20.689C44.2607 20.8147 44.5365 20.999 44.7688 21.2312C45.001 21.4635 45.1853 21.7393 45.311 22.0428C45.4367 22.3462 45.5014 22.6715 45.5014 23C45.5014 23.3285 45.4367 23.6538 45.311 23.9572C45.1853 24.2607 45.001 24.5365 44.7688 24.7688L36.5344 33L44.7688 41.2312Z" fill="#DC4848"/>
</svg>
