<svg width="32" height="32" viewBox="0 0 32 32" fill="none" xmlns="http://www.w3.org/2000/svg">
<path d="M6.66667 25.3333H8.56667L21.6 12.3L19.7 10.4L6.66667 23.4333V25.3333ZM4 28V22.3333L21.6 4.76667C21.8667 4.52222 22.1613 4.33333 22.484 4.2C22.8067 4.06667 23.1453 4 23.5 4C23.8547 4 24.1991 4.06667 24.5333 4.2C24.8676 4.33333 25.1564 4.53333 25.4 4.8L27.2333 6.66667C27.5 6.91111 27.6947 7.2 27.8173 7.53333C27.94 7.86667 28.0009 8.2 28 8.53333C28 8.88889 27.9391 9.228 27.8173 9.55067C27.6956 9.87333 27.5009 10.1676 27.2333 10.4333L9.66667 28H4ZM20.6333 11.3667L19.7 10.4L21.6 12.3L20.6333 11.3667Z" fill="#7AD040"/>
</svg>
