<svg width="22" height="22" viewBox="0 0 22 22" fill="none" xmlns="http://www.w3.org/2000/svg">
<path d="M18.8 14.2H19.4V13.6V3.19998V2.59998H18.8H8.40001H7.80001V3.19998V13.6V14.2H8.40001H18.8ZM2.60001 18.8V19.4H3.20001H10.4V20.8H3.20001C2.10138 20.8 1.20001 19.8986 1.20001 18.8V11.6H2.60001V18.8ZM8.37271 1.19998H18.8C19.8986 1.19998 20.8 2.10135 20.8 3.19998V13.6C20.8 14.6986 19.8986 15.6 18.8 15.6H8.40001C7.30138 15.6 6.40001 14.6986 6.40001 13.6V3.17398C6.40001 2.07515 7.27557 1.19998 8.37271 1.19998Z" fill="#B2C9FC" stroke="#B2C9FC" stroke-width="1.2"/>
</svg>
