<svg width="64" height="64" viewBox="0 0 64 64" fill="none" xmlns="http://www.w3.org/2000/svg">
<path fill-rule="evenodd" clip-rule="evenodd" d="M21.3333 18.6667C21.3333 15.8377 22.4571 13.1246 24.4575 11.1242C26.4579 9.12381 29.171 8 32 8C34.829 8 37.5421 9.12381 39.5425 11.1242C41.5429 13.1246 42.6667 15.8377 42.6667 18.6667C42.6667 21.4956 41.5429 24.2088 39.5425 26.2091C37.5421 28.2095 34.829 29.3333 32 29.3333C29.171 29.3333 26.4579 28.2095 24.4575 26.2091C22.4571 24.2088 21.3333 21.4956 21.3333 18.6667ZM21.3333 34.6667C17.7971 34.6667 14.4057 36.0714 11.9052 38.5719C9.40476 41.0724 8 44.4638 8 48C8 50.1217 8.84285 52.1566 10.3431 53.6569C11.8434 55.1571 13.8783 56 16 56H48C50.1217 56 52.1566 55.1571 53.6569 53.6569C55.1571 52.1566 56 50.1217 56 48C56 44.4638 54.5952 41.0724 52.0948 38.5719C49.5943 36.0714 46.2029 34.6667 42.6667 34.6667H21.3333Z" fill="#F7FAFF"/>
</svg>
