<svg width="32" height="32" viewBox="0 0 32 32" fill="none" xmlns="http://www.w3.org/2000/svg">
<path d="M4.00001 9.33622C3.62223 9.33622 3.30578 9.20822 3.05067 8.95222C2.79556 8.69622 2.66756 8.37978 2.66667 8.00289V4.00289C2.66667 3.62511 2.79467 3.30867 3.05067 3.05356C3.30667 2.79844 3.62312 2.67044 4.00001 2.66956H8.00001C8.37778 2.66956 8.69467 2.79756 8.95067 3.05356C9.20667 3.30956 9.33423 3.626 9.33334 4.00289C9.33245 4.37978 9.20445 4.69667 8.94934 4.95356C8.69423 5.21044 8.37778 5.338 8.00001 5.33622H5.33334V8.00289C5.33334 8.38067 5.20534 8.69756 4.94934 8.95356C4.69334 9.20956 4.37689 9.33711 4.00001 9.33622ZM4.00001 29.3362C3.62223 29.3362 3.30578 29.2082 3.05067 28.9522C2.79556 28.6962 2.66756 28.3798 2.66667 28.0029V24.0029C2.66667 23.6251 2.79467 23.3087 3.05067 23.0536C3.30667 22.7984 3.62312 22.6704 4.00001 22.6696C4.37689 22.6687 4.69378 22.7967 4.95067 23.0536C5.20756 23.3104 5.33512 23.6269 5.33334 24.0029V26.6696H8.00001C8.37778 26.6696 8.69467 26.7976 8.95067 27.0536C9.20667 27.3096 9.33423 27.626 9.33334 28.0029C9.33245 28.3798 9.20445 28.6967 8.94934 28.9536C8.69423 29.2104 8.37778 29.338 8.00001 29.3362H4.00001ZM24 29.3362C23.6222 29.3362 23.3058 29.2082 23.0507 28.9522C22.7956 28.6962 22.6676 28.3798 22.6667 28.0029C22.6658 27.626 22.7938 27.3096 23.0507 27.0536C23.3076 26.7976 23.624 26.6696 24 26.6696H26.6667V24.0029C26.6667 23.6251 26.7947 23.3087 27.0507 23.0536C27.3067 22.7984 27.6231 22.6704 28 22.6696C28.3769 22.6687 28.6938 22.7967 28.9507 23.0536C29.2076 23.3104 29.3351 23.6269 29.3333 24.0029V28.0029C29.3333 28.3807 29.2053 28.6976 28.9493 28.9536C28.6933 29.2096 28.3769 29.3371 28 29.3362H24ZM28 9.33622C27.6222 9.33622 27.3058 9.20822 27.0507 8.95222C26.7956 8.69622 26.6676 8.37978 26.6667 8.00289V5.33622H24C23.6222 5.33622 23.3058 5.20822 23.0507 4.95222C22.7956 4.69622 22.6676 4.37978 22.6667 4.00289C22.6658 3.626 22.7938 3.30956 23.0507 3.05356C23.3076 2.79756 23.624 2.66956 24 2.66956H28C28.3778 2.66956 28.6947 2.79756 28.9507 3.05356C29.2067 3.30956 29.3342 3.626 29.3333 4.00289V8.00289C29.3333 8.38067 29.2053 8.69756 28.9493 8.95356C28.6933 9.20956 28.3769 9.33711 28 9.33622ZM23.3333 25.3362V23.3362H25.3333V25.3362H23.3333ZM23.3333 21.3362V19.3362H25.3333V21.3362H23.3333ZM21.3333 23.3362V21.3362H23.3333V23.3362H21.3333ZM19.3333 25.3362V23.3362H21.3333V25.3362H19.3333ZM17.3333 23.3362V21.3362H19.3333V23.3362H17.3333ZM21.3333 19.3362V17.3362H23.3333V19.3362H21.3333ZM19.3333 21.3362V19.3362H21.3333V21.3362H19.3333ZM17.3333 19.3362V17.3362H19.3333V19.3362H17.3333ZM18.6667 14.6696C18.2889 14.6696 17.9725 14.5416 17.7173 14.2856C17.4622 14.0296 17.3342 13.7131 17.3333 13.3362V8.00289C17.3333 7.62511 17.4613 7.30867 17.7173 7.05356C17.9733 6.79844 18.2898 6.67044 18.6667 6.66956H24C24.3778 6.66956 24.6947 6.79756 24.9507 7.05356C25.2067 7.30956 25.3342 7.626 25.3333 8.00289V13.3362C25.3333 13.714 25.2053 14.0309 24.9493 14.2869C24.6933 14.5429 24.3769 14.6704 24 14.6696H18.6667ZM8.00001 25.3362C7.62223 25.3362 7.30578 25.2082 7.05067 24.9522C6.79556 24.6962 6.66756 24.3798 6.66667 24.0029V18.6696C6.66667 18.2918 6.79467 17.9753 7.05067 17.7202C7.30667 17.4651 7.62312 17.3371 8.00001 17.3362H13.3333C13.7111 17.3362 14.028 17.4642 14.284 17.7202C14.54 17.9762 14.6676 18.2927 14.6667 18.6696V24.0029C14.6667 24.3807 14.5387 24.6976 14.2827 24.9536C14.0267 25.2096 13.7102 25.3371 13.3333 25.3362H8.00001ZM8.00001 14.6696C7.62223 14.6696 7.30578 14.5416 7.05067 14.2856C6.79556 14.0296 6.66756 13.7131 6.66667 13.3362V8.00289C6.66667 7.62511 6.79467 7.30867 7.05067 7.05356C7.30667 6.79844 7.62312 6.67044 8.00001 6.66956H13.3333C13.7111 6.66956 14.028 6.79756 14.284 7.05356C14.54 7.30956 14.6676 7.626 14.6667 8.00289V13.3362C14.6667 13.714 14.5387 14.0309 14.2827 14.2869C14.0267 14.5429 13.7102 14.6704 13.3333 14.6696H8.00001ZM8.66667 23.3362H12.6667V19.3362H8.66667V23.3362ZM8.66667 12.6696H12.6667V8.66956H8.66667V12.6696ZM19.3333 12.6696H23.3333V8.66956H19.3333V12.6696Z" fill="#F7FAFF"/>
</svg>
