<svg width="26" height="26" viewBox="0 0 26 26" fill="none" xmlns="http://www.w3.org/2000/svg">
<path d="M3.90001 7.15C4.24479 7.15 4.57545 7.01304 4.81924 6.76924C5.06304 6.52544 5.20001 6.19478 5.20001 5.85C5.20001 5.50522 5.06304 5.17456 4.81924 4.93076C4.57545 4.68697 4.24479 4.55 3.90001 4.55C3.55522 4.55 3.22456 4.68697 2.98077 4.93076C2.73697 5.17456 2.60001 5.50522 2.60001 5.85C2.60001 6.19478 2.73697 6.52544 2.98077 6.76924C3.22456 7.01304 3.55522 7.15 3.90001 7.15ZM7.80001 5.85C7.80001 5.67761 7.86849 5.51228 7.99039 5.39038C8.11229 5.26849 8.27762 5.2 8.45001 5.2H22.75C22.9224 5.2 23.0877 5.26849 23.2096 5.39038C23.3315 5.51228 23.4 5.67761 23.4 5.85C23.4 6.02239 23.3315 6.18772 23.2096 6.30962C23.0877 6.43152 22.9224 6.5 22.75 6.5H8.45001C8.27762 6.5 8.11229 6.43152 7.99039 6.30962C7.86849 6.18772 7.80001 6.02239 7.80001 5.85ZM7.80001 12.35C7.80001 12.1776 7.86849 12.0123 7.99039 11.8904C8.11229 11.7685 8.27762 11.7 8.45001 11.7H22.75C22.9224 11.7 23.0877 11.7685 23.2096 11.8904C23.3315 12.0123 23.4 12.1776 23.4 12.35C23.4 12.5224 23.3315 12.6877 23.2096 12.8096C23.0877 12.9315 22.9224 13 22.75 13H8.45001C8.27762 13 8.11229 12.9315 7.99039 12.8096C7.86849 12.6877 7.80001 12.5224 7.80001 12.35ZM13.0286 19.5C13.0693 19.0528 13.1495 18.6195 13.2691 18.2H8.45001C8.27762 18.2 8.11229 18.2685 7.99039 18.3904C7.86849 18.5123 7.80001 18.6776 7.80001 18.85C7.80001 19.0224 7.86849 19.1877 7.99039 19.3096C8.11229 19.4315 8.27762 19.5 8.45001 19.5H13.0286ZM5.20001 18.85C5.20001 19.1948 5.06304 19.5254 4.81924 19.7692C4.57545 20.013 4.24479 20.15 3.90001 20.15C3.55522 20.15 3.22456 20.013 2.98077 19.7692C2.73697 19.5254 2.60001 19.1948 2.60001 18.85C2.60001 18.5052 2.73697 18.1746 2.98077 17.9308C3.22456 17.687 3.55522 17.55 3.90001 17.55C4.24479 17.55 4.57545 17.687 4.81924 17.9308C5.06304 18.1746 5.20001 18.5052 5.20001 18.85ZM3.90001 13.65C4.24479 13.65 4.57545 13.513 4.81924 13.2692C5.06304 13.0254 5.20001 12.6948 5.20001 12.35C5.20001 12.0052 5.06304 11.6746 4.81924 11.4308C4.57545 11.187 4.24479 11.05 3.90001 11.05C3.55522 11.05 3.22456 11.187 2.98077 11.4308C2.73697 11.6746 2.60001 12.0052 2.60001 12.35C2.60001 12.6948 2.73697 13.0254 2.98077 13.2692C3.22456 13.513 3.55522 13.65 3.90001 13.65ZM26 20.15C26 21.7015 25.3837 23.1895 24.2866 24.2866C23.1895 25.3837 21.7015 26 20.15 26C18.5985 26 17.1105 25.3837 16.0134 24.2866C14.9163 23.1895 14.3 21.7015 14.3 20.15C14.3 18.5985 14.9163 17.1105 16.0134 16.0134C17.1105 14.9163 18.5985 14.3 20.15 14.3C21.7015 14.3 23.1895 14.9163 24.2866 16.0134C25.3837 17.1105 26 18.5985 26 20.15ZM18.85 21.1809L18.0102 20.3398C17.8882 20.2178 17.7226 20.1492 17.55 20.1492C17.3774 20.1492 17.2119 20.2178 17.0898 20.3398C16.9678 20.4619 16.8992 20.6274 16.8992 20.8C16.8992 20.9726 16.9678 21.1382 17.0898 21.2602L18.3898 22.5602C18.4502 22.6207 18.5219 22.6688 18.6009 22.7015C18.6799 22.7343 18.7645 22.7512 18.85 22.7512C18.9355 22.7512 19.0202 22.7343 19.0991 22.7015C19.1781 22.6688 19.2498 22.6207 19.3102 22.5602L23.2102 18.6602C23.3323 18.5382 23.4008 18.3726 23.4008 18.2C23.4008 18.0274 23.3323 17.8619 23.2102 17.7398C23.0882 17.6178 22.9226 17.5492 22.75 17.5492C22.5774 17.5492 22.4119 17.6178 22.2898 17.7398L18.85 21.1809Z" fill="#F7FAFF"/>
</svg>
