<svg width="64" height="64" viewBox="0 0 64 64" fill="none" xmlns="http://www.w3.org/2000/svg">
<path fill-rule="evenodd" clip-rule="evenodd" d="M48 10.6667C48 9.95942 47.7191 9.28115 47.219 8.78105C46.7189 8.28095 46.0406 8 45.3333 8C44.6261 8 43.9478 8.28095 43.4477 8.78105C42.9476 9.28115 42.6667 9.95942 42.6667 10.6667V13.3333H10.6667C9.95942 13.3333 9.28115 13.6143 8.78105 14.1144C8.28095 14.6145 8 15.2928 8 16C8 16.7072 8.28095 17.3855 8.78105 17.8856C9.28115 18.3857 9.95942 18.6667 10.6667 18.6667H42.6667V21.3333C42.6667 22.0406 42.9476 22.7189 43.4477 23.219C43.9478 23.719 44.6261 24 45.3333 24C46.0406 24 46.7189 23.719 47.219 23.219C47.7191 22.7189 48 22.0406 48 21.3333V18.6667H53.3333C54.0406 18.6667 54.7189 18.3857 55.219 17.8856C55.7191 17.3855 56 16.7072 56 16C56 15.2928 55.7191 14.6145 55.219 14.1144C54.7189 13.6143 54.0406 13.3333 53.3333 13.3333H48V10.6667ZM10.6667 29.3333C9.95942 29.3333 9.28115 29.6143 8.78105 30.1144C8.28095 30.6145 8 31.2928 8 32C8 32.7072 8.28095 33.3855 8.78105 33.8856C9.28115 34.3857 9.95942 34.6667 10.6667 34.6667H16V37.3333C16 38.0406 16.281 38.7189 16.781 39.219C17.2811 39.719 17.9594 40 18.6667 40C19.3739 40 20.0522 39.719 20.5523 39.219C21.0524 38.7189 21.3333 38.0406 21.3333 37.3333V34.6667H53.3333C54.0406 34.6667 54.7189 34.3857 55.219 33.8856C55.7191 33.3855 56 32.7072 56 32C56 31.2928 55.7191 30.6145 55.219 30.1144C54.7189 29.6143 54.0406 29.3333 53.3333 29.3333H21.3333V26.6667C21.3333 25.9594 21.0524 25.2811 20.5523 24.781C20.0522 24.281 19.3739 24 18.6667 24C17.9594 24 17.2811 24.281 16.781 24.781C16.281 25.2811 16 25.9594 16 26.6667V29.3333H10.6667ZM8 48C8 47.2928 8.28095 46.6145 8.78105 46.1144C9.28115 45.6143 9.95942 45.3333 10.6667 45.3333H42.6667V42.6667C42.6667 41.9594 42.9476 41.2811 43.4477 40.7811C43.9478 40.281 44.6261 40 45.3333 40C46.0406 40 46.7189 40.281 47.219 40.7811C47.7191 41.2811 48 41.9594 48 42.6667V45.3333H53.3333C54.0406 45.3333 54.7189 45.6143 55.219 46.1144C55.7191 46.6145 56 47.2928 56 48C56 48.7072 55.7191 49.3855 55.219 49.8856C54.7189 50.3857 54.0406 50.6667 53.3333 50.6667H48V53.3333C48 54.0406 47.7191 54.7189 47.219 55.219C46.7189 55.7191 46.0406 56 45.3333 56C44.6261 56 43.9478 55.7191 43.4477 55.219C42.9476 54.7189 42.6667 54.0406 42.6667 53.3333V50.6667H10.6667C9.95942 50.6667 9.28115 50.3857 8.78105 49.8856C8.28095 49.3855 8 48.7072 8 48Z" fill="#F7FAFF"/>
</svg>
