<svg width="28" height="28" viewBox="0 0 28 28" fill="none" xmlns="http://www.w3.org/2000/svg">
<path d="M14 7.875C14 9.03532 13.5391 10.1481 12.7186 10.9686C11.8981 11.7891 10.7853 12.25 9.625 12.25C8.46468 12.25 7.35188 11.7891 6.53141 10.9686C5.71094 10.1481 5.25 9.03532 5.25 7.875C5.25 6.71468 5.71094 5.60188 6.53141 4.78141C7.35188 3.96094 8.46468 3.5 9.625 3.5C10.7853 3.5 11.8981 3.96094 12.7186 4.78141C13.5391 5.60188 14 6.71468 14 7.875ZM20.125 10.5C19.1898 10.4993 18.2596 10.6349 17.3635 10.9025C16.9606 10.3855 16.7109 9.76568 16.643 9.11371C16.575 8.46174 16.6916 7.8038 16.9793 7.21481C17.267 6.62583 17.7143 6.12947 18.2703 5.78228C18.8263 5.43508 19.4686 5.251 20.1241 5.251C20.7796 5.251 21.422 5.43508 21.978 5.78228C22.534 6.12947 22.9813 6.62583 23.269 7.21481C23.5567 7.8038 23.6732 8.46174 23.6053 9.11371C23.5373 9.76568 23.2877 10.3855 22.8848 10.9025C21.9893 10.6351 21.0596 10.4995 20.125 10.5ZM5.25 14H12.6997C11.275 15.7228 10.4969 17.8893 10.5 20.125C10.5 20.7095 10.5507 21.2794 10.6523 21.8348C10.3267 21.8616 9.98433 21.875 9.625 21.875C2.625 21.875 2.625 16.7562 2.625 16.7562V16.625C2.625 15.9288 2.90156 15.2611 3.39384 14.7688C3.88613 14.2766 4.55381 14 5.25 14ZM28 20.125C28 22.2136 27.1703 24.2166 25.6935 25.6935C24.2166 27.1703 22.2136 28 20.125 28C18.0364 28 16.0334 27.1703 14.5565 25.6935C13.0797 24.2166 12.25 22.2136 12.25 20.125C12.25 18.0364 13.0797 16.0334 14.5565 14.5565C16.0334 13.0797 18.0364 12.25 20.125 12.25C22.2136 12.25 24.2166 13.0797 25.6935 14.5565C27.1703 16.0334 28 18.0364 28 20.125ZM21 16.625C21 16.3929 20.9078 16.1704 20.7437 16.0063C20.5796 15.8422 20.3571 15.75 20.125 15.75C19.8929 15.75 19.6704 15.8422 19.5063 16.0063C19.3422 16.1704 19.25 16.3929 19.25 16.625V19.25H16.625C16.3929 19.25 16.1704 19.3422 16.0063 19.5063C15.8422 19.6704 15.75 19.8929 15.75 20.125C15.75 20.3571 15.8422 20.5796 16.0063 20.7437C16.1704 20.9078 16.3929 21 16.625 21H19.25V23.625C19.25 23.8571 19.3422 24.0796 19.5063 24.2437C19.6704 24.4078 19.8929 24.5 20.125 24.5C20.3571 24.5 20.5796 24.4078 20.7437 24.2437C20.9078 24.0796 21 23.8571 21 23.625V21H23.625C23.8571 21 24.0796 20.9078 24.2437 20.7437C24.4078 20.5796 24.5 20.3571 24.5 20.125C24.5 19.8929 24.4078 19.6704 24.2437 19.5063C24.0796 19.3422 23.8571 19.25 23.625 19.25H21V16.625Z" fill="#324269"/>
</svg>
