<svg width="19" height="19" viewBox="0 0 19 19" fill="none" xmlns="http://www.w3.org/2000/svg">
<path d="M6.859 12.1929L9.14525 9.9066M9.14525 9.9066L11.4315 12.1929M9.14525 9.9066V15.2412M16.7661 6.85827H1.52441M4.19171 13.717H3.96308C3.10947 13.717 2.68266 13.717 2.35662 13.5509C2.06983 13.4048 1.83667 13.1716 1.69054 12.8848C1.52441 12.5588 1.52441 12.132 1.52441 11.2784V5.48652C1.52441 4.63291 1.52441 4.2061 1.69054 3.88006C1.83667 3.59327 2.06983 3.3601 2.35662 3.21398C2.68266 3.04785 3.10947 3.04785 3.96308 3.04785H14.3274C15.181 3.04785 15.6078 3.04785 15.9339 3.21398C16.2207 3.3601 16.4538 3.59327 16.6 3.88006C16.7661 4.2061 16.7661 4.63291 16.7661 5.48652V11.2784C16.7661 12.132 16.7661 12.5588 16.6 12.8848C16.4538 13.1716 16.2207 13.4048 15.9339 13.5509C15.6078 13.717 15.181 13.717 14.3274 13.717H14.0988" stroke="white" stroke-width="2" stroke-linecap="round" stroke-linejoin="round"/>
</svg>
