<svg width="19" height="19" viewBox="0 0 19 19" fill="none" xmlns="http://www.w3.org/2000/svg">
<path d="M8.00126 6.86034C8.13553 6.47863 8.40057 6.15676 8.74942 5.95174C9.09827 5.74671 9.50842 5.67177 9.90724 5.74017C10.3061 5.80858 10.6678 6.01593 10.9284 6.32548C11.189 6.63504 11.3316 7.02684 11.331 7.43147C11.331 8.57375 9.61757 9.14488 9.61757 9.14488M9.63966 11.4311H9.64728M9.52542 15.2416C13.103 15.2416 16.0031 12.3414 16.0031 8.76384C16.0031 5.1863 13.103 2.28613 9.52542 2.28613C5.94788 2.28613 3.04771 5.1863 3.04771 8.76384C3.04771 9.48782 3.16648 10.1841 3.3856 10.8341C3.46806 11.0788 3.50928 11.2011 3.51672 11.295C3.52406 11.3878 3.51851 11.4529 3.49555 11.5431C3.47231 11.6345 3.42098 11.7295 3.31832 11.9195L2.07182 14.2267C1.89401 14.5558 1.80511 14.7204 1.82501 14.8474C1.84234 14.958 1.90744 15.0554 2.00303 15.1137C2.11277 15.1806 2.29881 15.1614 2.67089 15.1229L6.57354 14.7195C6.69172 14.7073 6.75082 14.7012 6.80468 14.7033C6.85765 14.7053 6.89505 14.7103 6.94671 14.7222C6.99923 14.7343 7.06528 14.7597 7.19738 14.8106C7.91987 15.089 8.70483 15.2416 9.52542 15.2416Z" stroke="white" stroke-width="2" stroke-linecap="round" stroke-linejoin="round"/>
</svg>
