<svg width="36" height="36" viewBox="0 0 36 36" fill="none" xmlns="http://www.w3.org/2000/svg">
<path d="M36 18C36 27.9411 27.9411 36 18 36C8.05887 36 0 27.9411 0 18C0 8.05887 8.05887 0 18 0C27.9411 0 36 8.05887 36 18ZM2.7 18C2.7 26.45 9.55004 33.3 18 33.3C26.45 33.3 33.3 26.45 33.3 18C33.3 9.55004 26.45 2.7 18 2.7C9.55004 2.7 2.7 9.55004 2.7 18Z" fill="#D9D9D9"/>
<path d="M12.7943 22.66C12.3067 22.66 11.8648 22.5724 11.4686 22.3971C11.0724 22.2219 10.7333 21.9705 10.4514 21.6429C10.1695 21.3076 9.95238 20.9 9.8 20.42C9.64762 19.9324 9.57143 19.38 9.57143 18.7629C9.57143 17.8943 9.71238 17.1667 9.99429 16.58C10.2762 15.9933 10.6648 15.5514 11.16 15.2543C11.6552 14.9571 12.2152 14.8086 12.84 14.8086C13.4876 14.8086 14.0514 14.961 14.5314 15.2657C15.019 15.5705 15.3962 16.0162 15.6629 16.6029C15.9295 17.1819 16.0629 17.8905 16.0629 18.7286C16.0629 19.361 15.9829 19.9248 15.8229 20.42C15.6629 20.9076 15.4381 21.319 15.1486 21.6543C14.859 21.9819 14.5124 22.2333 14.1086 22.4086C13.7124 22.5762 13.2743 22.66 12.7943 22.66ZM12.8286 21.3571C13.0267 21.3571 13.2171 21.3114 13.4 21.22C13.5905 21.1286 13.7619 20.9838 13.9143 20.7857C14.0667 20.58 14.1886 20.3171 14.28 19.9971C14.3714 19.6695 14.4171 19.2657 14.4171 18.7857C14.4171 18.2143 14.3486 17.7305 14.2114 17.3343C14.0819 16.9305 13.8952 16.6257 13.6514 16.42C13.4152 16.2067 13.1371 16.1 12.8171 16.1C12.5657 16.1 12.3181 16.18 12.0743 16.34C11.8305 16.5 11.6248 16.7705 11.4571 17.1514C11.2971 17.5324 11.2171 18.0581 11.2171 18.7286C11.2171 19.1933 11.259 19.5933 11.3429 19.9286C11.4343 20.2562 11.5524 20.5267 11.6971 20.74C11.8495 20.9457 12.021 21.1019 12.2114 21.2086C12.4095 21.3076 12.6152 21.3571 12.8286 21.3571ZM16.2183 23.5057L19.0526 14.3514H20.5726L17.7383 23.5057H16.2183ZM20.92 22.5V20.82L23.8457 18.8886C23.9829 18.8048 24.12 18.7057 24.2571 18.5914C24.4019 18.4771 24.5314 18.3476 24.6457 18.2029C24.7676 18.0581 24.8667 17.9019 24.9429 17.7343C25.019 17.559 25.0571 17.3686 25.0571 17.1629C25.0571 16.9571 25.0076 16.7781 24.9086 16.6257C24.8171 16.4733 24.68 16.359 24.4971 16.2829C24.3219 16.199 24.1048 16.1571 23.8457 16.1571C23.5867 16.1571 23.3695 16.199 23.1943 16.2829C23.0267 16.359 22.8895 16.4733 22.7829 16.6257C22.6838 16.7705 22.6114 16.9457 22.5657 17.1514C22.5276 17.3571 22.5086 17.5819 22.5086 17.8257L20.9314 17.5057C20.9162 16.9419 21.0229 16.4581 21.2514 16.0543C21.4876 15.6429 21.8267 15.3267 22.2686 15.1057C22.7105 14.8848 23.2476 14.7743 23.88 14.7743C24.4286 14.7743 24.9124 14.8619 25.3314 15.0371C25.7581 15.2048 26.0895 15.46 26.3257 15.8029C26.5619 16.1381 26.68 16.5533 26.68 17.0486C26.68 17.4295 26.6152 17.7724 26.4857 18.0771C26.3638 18.3819 26.2 18.6562 25.9943 18.9C25.7962 19.1362 25.5752 19.3457 25.3314 19.5286C25.0952 19.7114 24.8629 19.8714 24.6343 20.0086L22.8286 21.1171V21.22L26.8057 21.1629V22.5H20.92Z" fill="white"/>
</svg>
