<svg width="36" height="36" viewBox="0 0 36 36" fill="none" xmlns="http://www.w3.org/2000/svg">
<path d="M36 18C36 27.9411 27.9411 36 18 36C8.05887 36 0 27.9411 0 18C0 8.05887 8.05887 0 18 0C27.9411 0 36 8.05887 36 18ZM2.7 18C2.7 26.45 9.55004 33.3 18 33.3C26.45 33.3 33.3 26.45 33.3 18C33.3 9.55004 26.45 2.7 18 2.7C9.55004 2.7 2.7 9.55004 2.7 18Z" fill="#D9D9D9"/>
<path d="M36 18C36 27.9411 27.9411 36 18 36C8.05887 36 0 27.9411 0 18C0 8.05887 8.05887 0 18 0C27.9411 0 36 8.05887 36 18ZM2.7 18C2.7 26.45 9.55004 33.3 18 33.3C26.45 33.3 33.3 26.45 33.3 18C33.3 9.55004 26.45 2.7 18 2.7C9.55004 2.7 2.7 9.55004 2.7 18Z" fill="#DE7D02"/>
<path d="M9.55728 22V20.32L12.483 18.3886C12.6201 18.3048 12.7573 18.2057 12.8944 18.0914C13.0392 17.9771 13.1687 17.8476 13.283 17.7029C13.4049 17.5581 13.5039 17.4019 13.5801 17.2343C13.6563 17.059 13.6944 16.8686 13.6944 16.6629C13.6944 16.4571 13.6449 16.2781 13.5458 16.1257C13.4544 15.9733 13.3173 15.859 13.1344 15.7829C12.9592 15.699 12.742 15.6571 12.483 15.6571C12.2239 15.6571 12.0068 15.699 11.8316 15.7829C11.6639 15.859 11.5268 15.9733 11.4201 16.1257C11.3211 16.2705 11.2487 16.4457 11.203 16.6514C11.1649 16.8571 11.1458 17.0819 11.1458 17.3257L9.56871 17.0057C9.55347 16.4419 9.66013 15.9581 9.88871 15.5543C10.1249 15.1429 10.4639 14.8267 10.9058 14.6057C11.3478 14.3848 11.8849 14.2743 12.5173 14.2743C13.0658 14.2743 13.5497 14.3619 13.9687 14.5371C14.3954 14.7048 14.7268 14.96 14.963 15.3029C15.1992 15.6381 15.3173 16.0533 15.3173 16.5486C15.3173 16.9295 15.2525 17.2724 15.123 17.5771C15.0011 17.8819 14.8373 18.1562 14.6316 18.4C14.4335 18.6362 14.2125 18.8457 13.9687 19.0286C13.7325 19.2114 13.5001 19.3714 13.2716 19.5086L11.4658 20.6171V20.72L15.443 20.6629V22H9.55728ZM15.8377 23.0057L18.672 13.8514H20.192L17.3577 23.0057H15.8377ZM20.5394 22V20.32L23.4651 18.3886C23.6023 18.3048 23.7394 18.2057 23.8766 18.0914C24.0213 17.9771 24.1508 17.8476 24.2651 17.7029C24.387 17.5581 24.4861 17.4019 24.5623 17.2343C24.6385 17.059 24.6766 16.8686 24.6766 16.6629C24.6766 16.4571 24.627 16.2781 24.528 16.1257C24.4366 15.9733 24.2994 15.859 24.1166 15.7829C23.9413 15.699 23.7242 15.6571 23.4651 15.6571C23.2061 15.6571 22.9889 15.699 22.8137 15.7829C22.6461 15.859 22.5089 15.9733 22.4023 16.1257C22.3032 16.2705 22.2308 16.4457 22.1851 16.6514C22.147 16.8571 22.128 17.0819 22.128 17.3257L20.5508 17.0057C20.5356 16.4419 20.6423 15.9581 20.8708 15.5543C21.107 15.1429 21.4461 14.8267 21.888 14.6057C22.3299 14.3848 22.867 14.2743 23.4994 14.2743C24.048 14.2743 24.5318 14.3619 24.9508 14.5371C25.3775 14.7048 25.7089 14.96 25.9451 15.3029C26.1813 15.6381 26.2994 16.0533 26.2994 16.5486C26.2994 16.9295 26.2347 17.2724 26.1051 17.5771C25.9832 17.8819 25.8194 18.1562 25.6137 18.4C25.4156 18.6362 25.1947 18.8457 24.9508 19.0286C24.7147 19.2114 24.4823 19.3714 24.2537 19.5086L22.448 20.6171V20.72L26.4251 20.6629V22H20.5394Z" fill="white"/>
</svg>
