<svg width="36" height="36" viewBox="0 0 36 36" fill="none" xmlns="http://www.w3.org/2000/svg">
<path d="M36 18C36 27.9411 27.9411 36 18 36C8.05887 36 0 27.9411 0 18C0 8.05887 8.05887 0 18 0C27.9411 0 36 8.05887 36 18ZM2.7 18C2.7 26.45 9.55004 33.3 18 33.3C26.45 33.3 33.3 26.45 33.3 18C33.3 9.55004 26.45 2.7 18 2.7C9.55004 2.7 2.7 9.55004 2.7 18Z" fill="#D9D9D9"/>
<path d="M18 0C20.3638 2.8188e-08 22.7044 0.465584 24.8883 1.37017C27.0722 2.27475 29.0565 3.60062 30.7279 5.27208C32.3994 6.94353 33.7252 8.92784 34.6298 11.1117C35.5344 13.2956 36 15.6362 36 18C36 20.3638 35.5344 22.7044 34.6298 24.8883C33.7252 27.0722 32.3994 29.0565 30.7279 30.7279C29.0565 32.3994 27.0722 33.7253 24.8883 34.6298C22.7044 35.5344 20.3638 36 18 36V33.3C20.0092 33.3 21.9988 32.9043 23.8551 32.1354C25.7113 31.3665 27.398 30.2395 28.8187 28.8187C30.2395 27.398 31.3665 25.7113 32.1354 23.8551C32.9043 21.9988 33.3 20.0092 33.3 18C33.3 15.9908 32.9043 14.0012 32.1354 12.1449C31.3665 10.2887 30.2395 8.602 28.8187 7.18127C27.398 5.76053 25.7113 4.63354 23.8551 3.86464C21.9988 3.09575 20.0092 2.7 18 2.7V0Z" fill="#DE7D02"/>
<path d="M12.4963 22.3574V17.1917H11.3878V15.7517C11.7459 15.7517 12.0392 15.6908 12.2678 15.5689C12.504 15.4393 12.6563 15.1879 12.7249 14.8146H14.1535V22.3574H12.4963ZM14.8701 23.3631L17.7044 14.2089H19.2244L16.3901 23.3631H14.8701ZM19.5718 22.3574V20.6774L22.4975 18.746C22.6346 18.6622 22.7718 18.5631 22.9089 18.4489C23.0537 18.3346 23.1832 18.205 23.2975 18.0603C23.4194 17.9155 23.5185 17.7593 23.5946 17.5917C23.6708 17.4165 23.7089 17.226 23.7089 17.0203C23.7089 16.8146 23.6594 16.6355 23.5604 16.4831C23.4689 16.3308 23.3318 16.2165 23.1489 16.1403C22.9737 16.0565 22.7565 16.0146 22.4975 16.0146C22.2385 16.0146 22.0213 16.0565 21.8461 16.1403C21.6785 16.2165 21.5413 16.3308 21.4346 16.4831C21.3356 16.6279 21.2632 16.8031 21.2175 17.0089C21.1794 17.2146 21.1604 17.4393 21.1604 17.6831L19.5832 17.3631C19.568 16.7993 19.6746 16.3155 19.9032 15.9117C20.1394 15.5003 20.4785 15.1841 20.9204 14.9631C21.3623 14.7422 21.8994 14.6317 22.5318 14.6317C23.0804 14.6317 23.5642 14.7193 23.9832 14.8946C24.4099 15.0622 24.7413 15.3174 24.9775 15.6603C25.2137 15.9955 25.3318 16.4108 25.3318 16.906C25.3318 17.2869 25.267 17.6298 25.1375 17.9346C25.0156 18.2393 24.8518 18.5136 24.6461 18.7574C24.448 18.9936 24.227 19.2031 23.9832 19.386C23.747 19.5689 23.5146 19.7289 23.2861 19.866L21.4804 20.9746V21.0774L25.4575 21.0203V22.3574H19.5718Z" fill="white"/>
</svg>
